<svg width="800" height="600" xmlns="http://www.w3.org/2000/svg">

 <g>
  <title>Layer 1</title>
  <path d="m383.91275,105.5927c0,0.6993 0,1.3986 0,2.09789c0,0.6993 1.02011,1.88351 1.39859,2.79719c0.26761,0.64607 0.48428,2.22797 1.39859,3.49649c0.57828,0.80228 1.03934,1.27535 1.39859,2.79719c0.16068,0.6806 -0.215,1.52866 0.69931,2.7972c0.57825,0.80227 0.48428,1.52866 1.39859,2.79719c0.57825,0.80228 0.99222,1.69151 2.0979,2.7972c1.10568,1.10568 1.88348,1.71944 2.79718,2.09789c0.64609,0.26762 1.45181,-0.26762 2.0979,0c0.91367,0.37846 1.39859,1.39859 2.0979,1.39859c0.69928,0 1.39859,0 2.09787,0c0.69931,0 1.39859,0 2.0979,0c1.39859,0 2.0979,0 3.49649,0c0.69931,0 2.0979,0 2.79718,0c0.69931,0 1.39862,0 2.0979,0c0.69931,0 2.0979,0 3.49649,0c0.69931,0 2.0979,0 2.79718,0c1.39862,0 2.0979,0 2.79721,0c0.69928,0 1.88351,-1.02013 2.79718,-1.39859c0.64609,-0.26762 2.0979,0 2.79718,0c0.69931,0 1.39862,0 2.0979,0c0.69931,0 1.39859,0 2.0979,0c0.69931,0 2.0979,-0.6993 2.79718,-0.6993c0.69931,0 1.39862,0 2.0979,0c0.69931,0 1.45181,0.26761 2.0979,0c0.9137,-0.37846 1.39859,-1.39859 1.39859,-1.39859c0.69931,0 1.27533,-0.34004 2.79718,-0.6993c0.6806,-0.16067 1.39862,0 2.0979,0c0.69931,0 2.58282,-1.02013 3.49649,-1.39859c0.64609,-0.26762 1.39859,0 2.79721,0c0.69928,0 2.09787,-0.6993 2.79718,-0.6993c0.69928,0 1.4173,0.16067 2.0979,0c1.52185,-0.35926 2.09787,-1.39859 2.79718,-1.39859c0.69931,0 1.39859,0 2.0979,0c0.69928,0 1.45181,0.26762 2.0979,0c0.91367,-0.37846 1.39859,-0.6993 2.09787,-0.6993c0.69931,0 1.436,0.32133 2.79721,0c1.52185,-0.35926 2.09787,-1.39859 2.79718,-1.39859c1.39859,0 2.0979,0 2.79718,0c0.69931,0 1.88351,1.02013 2.79721,1.39859c0.64606,0.2676 1.39859,0 2.0979,0c0.69928,0 2.09787,0.6993 2.79718,0.6993c0.69928,0 1.39859,0 2.0979,0c0.69928,0 1.39859,0.6993 2.09787,1.39859c0,0 0.71802,0.53864 1.39862,0.6993c1.52185,0.35926 2.09787,1.39859 2.79718,2.09789c0.69931,0.6993 1.29559,1.51964 2.0979,2.09789c1.26852,0.91429 2.2189,1.29559 2.79718,2.09789c0.91431,1.26852 1.39859,2.0979 2.0979,2.7972c0,0 1.02011,0.48491 1.39859,1.39861c0.26761,0.64606 0,1.39859 0,2.09789c0,1.39859 0,2.0979 0,3.49649c0,0.6993 0,1.39859 0,2.09789c0,0.69931 0,1.39861 0,2.0979c0,0.6993 0,1.39859 0,2.0979c0,0.6993 0,2.09789 0,2.79718c0,0.6993 0,0.6993 0,1.39861c0,0.6993 0.16068,1.4173 0,2.09789c-0.35925,1.52187 -1.51965,1.9949 -2.0979,2.7972c-0.91431,1.26851 -1.39859,2.09789 -2.0979,3.49649c-0.69928,1.39859 -1.61588,2.47195 -2.79718,3.49649c-1.67059,1.4489 -2.58279,1.71944 -3.49649,2.09789c-0.64606,0.26759 -1.52866,-0.215 -2.79718,0.6993c-0.80231,0.57826 -2.0979,1.39861 -2.79721,1.39861c-0.69928,0 -2.22794,0.4843 -3.49646,1.39859c-0.80231,0.57825 -1.39862,0.6993 -2.0979,0.6993c-0.69931,0 -1.39859,0 -2.0979,0c-0.69931,0 -1.4173,-0.16068 -2.0979,0c-1.52185,0.35925 -2.0979,1.39861 -3.49649,1.39861c-0.69928,0 -1.27533,0.34004 -2.79718,0.6993c-0.6806,0.16068 -1.39859,0 -2.0979,0c-0.69928,0 -1.40762,-0.11201 -2.0979,0c-2.1828,0.35422 -2.79718,1.39859 -3.49649,1.39859c-0.69928,0 -1.27533,0.34004 -2.79718,0.6993c-0.6806,0.16068 -1.39859,0 -1.39859,0c-0.69931,0 -1.4173,-0.16068 -2.0979,0c-1.52185,0.35927 -2.0979,1.39861 -3.49649,1.39861c-0.69928,0 -1.97464,0.34004 -3.49649,0.6993c-0.68057,0.16066 -2.15274,-0.14696 -4.19577,0.6993c-1.44464,0.59839 -2.0979,0.6993 -2.79721,0.6993c-0.69928,0 -2.09787,0 -2.79718,0c-0.69931,0 -2.0979,0 -3.49649,0c-0.69931,0 -2.0979,0 -2.79718,0c-1.39862,0 -2.0979,0 -3.49649,0c-0.69931,0 -2.0979,0 -3.49649,0c-1.39859,0 -2.0979,0 -2.79721,0c-0.69928,0 -2.09787,0 -3.49649,0c-1.39859,0 -2.79718,0 -3.49646,0c-1.39862,0 -2.79721,0 -4.89511,0c-2.09787,0 -5.50943,-1.04437 -7.69226,-1.39859c-1.38052,-0.22403 -3.49649,0 -5.59439,0c-2.0979,0 -4.19577,0 -6.29367,0c-2.0979,0 -4.1958,0 -6.29367,0c-2.0979,0 -4.1958,0 -6.2937,0c-2.09787,0 -4.89508,-0.6993 -6.29367,-0.6993c-2.0979,0 -4.77182,-1.03934 -6.29367,-1.39861c-0.6806,-0.16068 -1.27533,-0.34004 -2.79721,-0.6993c-0.68057,-0.16066 -2.1069,0.11201 -2.79718,0c-2.18283,-0.35422 -3.49649,-1.39859 -4.1958,-1.39859c-1.39859,0 -3.49646,-0.6993 -4.19577,-0.6993c-1.39859,0 -2.0979,0 -3.49649,0c-1.39859,0 -2.0979,0 -3.49649,0c-1.39859,0 -2.79718,0 -3.49649,0c-1.39859,0 -2.0979,0 -3.49649,0c-1.39859,0 -2.79718,0 -4.19577,0c-1.39862,0 -3.49649,0 -4.89511,0c-1.39859,0 -2.09787,0 -2.79718,0c-0.69928,0 -1.436,-0.32133 -2.79718,0c-1.52185,0.35925 -2.11597,0.47527 -3.49649,0.6993c-2.18283,0.35422 -3.49649,1.39859 -4.89508,1.39859c-0.69931,0 -2.79721,0.6993 -4.1958,0.6993c-0.69928,0 -2.0979,0 -3.49649,0.69931c-1.39859,0.6993 -2.67392,1.03934 -4.19577,1.39859c-0.6806,0.16068 -2.11597,-0.22403 -3.49649,0c-2.18283,0.35422 -3.50552,1.28658 -4.1958,1.39859c-2.18283,0.35422 -4.19577,1.39861 -5.59439,2.0979c-1.39859,0.6993 -2.09787,0.6993 -3.49646,1.39859c-1.39862,0.6993 -2.79721,0.6993 -4.1958,1.39859c-1.39859,0.69931 -2.22797,1.18361 -3.49649,2.0979c-0.80231,0.57825 -2.0979,1.39861 -2.79718,2.0979c-0.69931,0.69931 -1.71942,1.1842 -2.0979,2.09789c-0.26761,0.64606 -0.82034,2.69421 -1.39859,3.49649c-0.91431,1.26852 -1.18359,2.22798 -2.0979,3.49649c-0.57828,0.80228 -1.28656,2.10692 -1.39859,2.7972c-0.35422,2.18282 -1.39859,3.49648 -1.39859,4.89508c0,1.39859 0,2.7972 0,4.19579c0,0.6993 0,2.09789 0,2.7972c0,1.39859 -0.16068,2.11659 0,2.79718c0.35925,1.52185 1.73862,1.97466 2.09787,3.49649c0.32132,1.36119 0.48431,2.92726 1.39862,4.19579c0.57825,0.80228 0.48428,1.52867 1.39859,2.7972c0.57825,0.80228 1.39859,1.39859 2.0979,2.0979c0.69928,0.6993 0.9166,1.77266 2.09787,2.79718c1.67059,1.4489 2.79721,1.39859 4.1958,2.7972c0.69928,0.6993 2.01505,1.53166 4.19577,2.7972c1.35245,0.78487 2.58282,1.71942 3.49649,2.09789c0.64609,0.26762 2.11661,0.53862 2.79721,0.6993c1.52185,0.35927 1.97461,1.73865 3.49649,2.0979c0.68057,0.16066 2.67392,1.03934 4.19577,1.39859c1.36118,0.32133 2.71228,0.34508 4.89508,0.6993c0.69028,0.11201 2.0979,0 2.79721,0c0.69928,0 1.52866,-0.21498 2.79718,0.69931c0.80228,0.57826 1.41666,0.47527 2.79718,0.6993c2.18283,0.35422 3.50552,0.58728 4.1958,0.6993c2.18283,0.35422 2.79718,1.39859 3.49649,1.39859c0.69928,0 2.10693,-0.11201 2.79718,0c2.18283,0.35423 3.49649,0.69931 4.89508,0.69931c1.39859,0 3.49649,0.6993 4.89508,1.39859c1.39862,0.6993 2.0979,0.6993 3.49649,0.6993c1.39862,0 2.80624,-0.11201 3.49649,0c2.18283,0.35422 3.50552,1.28658 4.1958,1.39859c2.18283,0.35423 2.79718,0.69931 4.89508,0.69931c1.39859,0 3.37323,1.03934 4.89508,1.39859c0.6806,0.16068 2.10693,-0.11201 2.79718,0c2.18283,0.35422 2.81528,0.47527 4.1958,0.6993c2.18283,0.35422 3.5152,1.23792 4.1958,1.39859c1.52185,0.35927 2.09787,0.69931 3.49646,0.69931c1.39862,0 2.81528,-0.22403 4.1958,0c2.18283,0.35422 3.49649,1.39859 4.1958,1.39859c1.39859,0 2.79718,0 4.19577,0c0.69931,0 1.39859,0 2.0979,0c0.69928,0 1.39859,0 2.0979,0c0.69928,0 2.09787,0 2.79718,0c1.39859,0 3.49649,0 5.59439,0c2.79718,0 4.89508,0 7.69226,0c2.0979,0 4.1958,0 6.29367,0c0.69931,0 1.39862,0 2.0979,0c1.39859,0 2.0979,0 2.79721,0c1.39859,0 3.49649,0 4.89508,0c1.39859,0 4.19577,0 5.59436,0c2.79721,0 4.89511,0 6.2937,0c2.09787,0 4.19577,0 5.59436,0c2.0979,0 4.1958,0 6.2937,0c2.0979,0 4.19577,0 6.29367,0c2.0979,0 4.1958,0 6.29367,0c2.0979,0 4.21387,-0.22403 5.59439,0c2.18283,0.35422 2.79718,0.6993 4.1958,0.6993c1.39859,0 2.22797,-0.21503 3.49649,0.6993c0.80228,0.57826 1.4173,0.53865 2.09787,0.69931c1.52185,0.35925 2.11661,0.53862 2.79721,0.6993c1.52185,0.35927 1.97464,1.73863 3.49649,2.09789c0.68057,0.16064 1.39859,0.69931 2.09787,1.39859c0.69931,0.69931 1.23795,1.4173 1.39862,2.0979c0.35925,1.52185 1.18359,2.22797 2.09787,3.49649c0.57825,0.80231 1.39859,1.39859 2.0979,2.0979c0.69931,0.69931 1.39859,2.09787 2.0979,2.79718c0.69931,0.69931 2.0979,1.39859 2.79718,2.0979c0.69931,0.69931 1.51962,0.59631 2.0979,1.39859c0.91431,1.26849 1.51965,1.9949 2.0979,2.79718c0.91431,1.26852 1.23792,2.11661 1.39859,2.79721c0.35925,1.52185 0.58731,2.10693 0.69931,2.79718c0.35422,2.18283 1.39859,2.79721 1.39859,3.49649c0,0.69931 0,1.39859 0,2.0979c0,0.69928 0,1.39859 0,2.0979c0,0.69928 0,2.09787 0,3.49649c0,1.39859 0,2.79718 0,4.19577c0,1.39859 0.215,2.92725 -0.69931,4.1958c-0.57825,0.80228 -0.5386,1.4173 -0.69928,2.09787c-0.35925,1.52188 -1.57797,2.65524 -2.0979,3.49649c-1.1626,1.8811 -0.48428,2.92731 -1.39859,4.1958c-0.57825,0.80228 -1.18362,1.52866 -2.0979,2.79718c-0.57825,0.80231 -1.29559,1.51962 -2.0979,2.0979c-1.26852,0.91431 -2.92725,1.18362 -4.19577,2.0979c-0.80228,0.57825 -2.10693,1.28656 -2.79721,1.39859c-2.18283,0.35422 -2.67392,1.03934 -4.19577,1.39859c-0.6806,0.16068 -1.97464,1.03934 -3.49649,1.39859c-0.6806,0.16068 -1.39862,0.69931 -2.0979,0.69931c-1.39859,0 -2.58282,1.02014 -3.49649,1.39859c-0.64609,0.26761 -3.01398,0.23602 -4.89508,1.39859c-0.84128,0.51993 -1.27536,1.03934 -2.79721,1.39859c-0.68057,0.16064 -1.97461,1.03937 -3.49646,1.39862c-0.6806,0.16068 -2.11661,0.5386 -2.79721,0.69928c-1.52185,0.35925 -2.0979,1.39859 -2.79718,1.39859c-0.69931,0 -1.39859,0 -2.0979,0c-0.69931,0 -1.27533,0.34006 -2.79718,0.69931c-1.36118,0.32135 -2.79721,0 -4.89508,0c-2.0979,0 -3.49649,0 -4.89511,0c-2.09787,0 -4.19577,0 -6.29367,0c-2.0979,0 -4.19577,0 -6.29367,0c-2.0979,0 -4.89508,0 -6.29367,0c-2.0979,0 -3.49649,0 -5.59439,0c-0.69931,0 -1.39859,0 -2.79721,0c-1.39859,0 -2.71225,-0.34509 -4.89508,-0.69931c-0.69025,-0.112 -2.82608,0.10684 -5.59436,-0.69928c-2.1232,-0.61829 -3.43201,-1.04633 -6.2937,-1.39859c-1.38812,-0.17087 -4.13129,-1.04633 -6.99298,-1.39862c-0.69403,-0.08545 -2.79718,-0.69928 -4.19577,-0.69928c-0.69931,0 -2.0979,0 -2.79718,0c-1.39862,0 -3.37326,-1.03934 -4.89511,-1.39859c-0.68057,-0.16064 -2.09787,0 -3.49649,0c-1.39859,0 -2.09787,0 -2.79718,0c-0.69928,0 -2.79718,-0.69931 -3.49649,-0.69931c-1.39859,0 -2.0979,0 -3.49649,0c-1.39859,0 -2.79718,0 -4.19577,0c-1.39859,0 -3.49649,0 -4.89508,0c-1.39862,0 -2.79721,0 -4.1958,0c-1.39859,0 -2.0979,0 -3.49649,0c-0.69931,0 -1.39859,0 -2.0979,0c-0.69928,0 -2.09787,0 -3.49649,0c-1.39859,0 -2.11658,0.16068 -2.79718,0c-1.52185,-0.35925 -2.79718,-1.39859 -3.49649,-1.39859c-0.69931,0 -1.39859,0 -3.49649,0c-0.69928,0 -2.0979,0 -3.49649,0c-0.69928,0 -2.0979,0 -3.49649,0c-1.39859,0 -2.79718,0 -4.19577,0c-0.69931,0 -1.39859,0 -2.79721,0c-0.69928,0 -2.1069,-0.11203 -2.79718,0c-2.18283,0.35422 -2.79718,1.39859 -4.1958,1.39859c-0.69928,0 -2.09787,0.69931 -3.49646,0.69931c-0.69931,0 -0.69931,0 -1.39862,0c-0.69928,0 -1.39859,0 -2.09787,0.69928c-0.69931,0.69931 -1.43604,0.37799 -2.79721,0.69931c-1.52185,0.35925 -2.92725,1.18362 -4.19577,2.0979c-0.80228,0.57825 -1.99493,1.51962 -2.79721,2.09787c-1.26852,0.91428 -2.22797,1.18359 -3.49649,2.0979c-0.80228,0.57825 -2.2189,1.29559 -2.79718,2.0979c-0.91431,1.26852 -1.39859,2.09787 -2.0979,2.79718c-0.69931,0.69931 -1.18359,1.52866 -2.0979,2.79721c-0.57825,0.80228 -1.18359,1.52866 -2.09787,2.79718c-1.15649,1.60455 -1.88293,2.22797 -2.79721,3.49649c-0.57825,0.80228 -1.39859,2.0979 -2.09787,3.49649c-0.69931,1.39859 -1.39862,2.79718 -1.39862,4.19577c0,0.69931 -0.69928,2.0979 -0.69928,2.79721c0,1.39859 0,2.0979 0,3.49649c0,0.69928 0,2.0979 0.69928,4.19577c0.69931,2.0979 1.73865,3.37323 2.0979,4.89508c0.16068,0.6806 0.48428,2.92728 1.39859,4.1958c1.15652,1.60458 2.0979,2.79718 3.49649,4.19577c0.69931,0.69931 0.69931,1.39862 1.39859,2.79721c0.69931,1.39859 1.71945,1.88351 2.0979,2.79718c0.26761,0.64609 0.69931,2.79721 1.39859,3.49649c0.69931,0.69931 1.73865,1.27533 2.0979,2.79718c0.16068,0.6806 0.69931,2.0979 0.69931,2.79721c0,0 -0.215,1.52866 0.69928,2.79718c0.57825,0.80231 1.39862,2.79721 1.39862,3.49649c0,0.69931 -0.00003,1.39859 0.69928,2.0979c0.69931,0.69931 1.07724,2.13531 1.39859,3.49649c0.35925,1.52185 1.71942,1.88351 2.0979,2.79718c0.26761,0.64609 0.69928,2.0979 1.39859,2.79721c0.69931,0.69931 1.29562,1.51962 2.0979,2.09787c1.26852,0.91428 2.11661,1.23798 2.79718,1.39862c1.52185,0.35925 2.0979,0.69931 3.49649,1.39859c1.39862,0.69931 2.80768,1.22772 4.1958,1.39859c2.86166,0.35226 4.89508,1.39859 6.99298,2.0979c2.0979,0.69928 4.20624,1.22772 5.59436,1.39859c2.86169,0.35226 3.49649,0.69928 4.89511,0.69928c1.39859,0 3.49649,0.00003 6.29367,1.39862c1.39859,0.69928 2.0979,0.69928 3.49649,0.69928c1.39859,0 2.79718,0 4.19577,0c2.0979,0 4.1958,0 5.59439,0c1.39859,0 3.49649,0 6.29367,0c1.39862,0 3.49649,0 5.59439,0c1.39859,0 2.79718,0 4.1958,0c0.69928,0 2.1069,0.112 2.79718,0c2.18283,-0.35422 2.79718,-1.39859 3.49649,-1.39859c0.69931,0 2.79718,-0.69931 3.49649,-0.69931c1.39859,0 2.83459,0.32132 4.19577,0c1.52185,-0.35925 2.0979,-1.39859 2.79721,-1.39859c1.39859,0 3.49649,-0.69928 4.19577,-0.69928c2.0979,0 4.1958,-0.69931 5.59439,-0.69931c2.0979,0 4.1958,0 6.29367,0c1.39862,0 2.79721,0 3.49649,0c1.39859,0 2.0979,0 3.49649,0c0.69931,0 1.39859,0 2.0979,0c1.39859,0 3.41156,-0.34509 5.59439,-0.69931c1.38052,-0.22403 3.49649,0 5.59436,0c1.39862,0 2.79721,0 4.1958,0c0.69931,0 1.39859,0 2.0979,0c0.69928,0 1.39859,0 2.09787,0c0.69931,0 1.39862,0 2.79721,0c1.39859,0 2.79718,0 4.89508,0c2.0979,0 3.49649,0 5.59439,0c1.39859,0 2.79718,0 3.49649,0c1.39859,0 2.09787,0 3.49649,0c0.69928,0 2.09787,0 2.79718,0c0.69931,0 4.19577,0 5.59439,0c1.39859,0 2.79718,0 3.49649,0c0.69928,0 1.39859,0 2.09787,0c0.69931,0 1.52872,-0.215 2.79721,0.69931c0.80228,0.57828 2.1069,1.28656 2.79718,1.39859c2.18283,0.35422 2.79718,1.39859 3.49649,1.39859c0.69931,0 2.0979,0.69931 3.49649,1.39862c1.39859,0.69928 2.228,1.18356 3.49649,2.09787c0.80228,0.57825 2.0979,1.39862 2.79718,2.0979c0.69931,0.69931 1.4173,1.23792 2.0979,1.39859c1.52185,0.35925 2.22797,1.18359 3.49649,2.0979c0.80231,0.57828 1.97464,1.73865 3.49649,2.0979c0.6806,0.16068 2.58279,1.02011 3.49649,1.39859c0.64606,0.26761 2.20438,0.16409 3.49649,0.69931c0.91367,0.37845 1.28656,2.1069 1.39859,2.79718c0.35422,2.18283 1.74368,3.41156 2.0979,5.59439c0.112,0.69025 1.03934,1.97461 1.39859,3.49649c0.16068,0.68057 0,1.39859 0,2.09787c0,0.69931 0,1.39862 0,2.0979c0,0.69931 0,1.39859 0,2.0979c0,0.69931 0,1.39859 0,2.0979c0,0.69928 0,1.39859 0,2.09787c0,0.69931 0.21497,2.22797 -0.69931,3.49649c-0.57825,0.80228 -0.69928,1.39862 -0.69928,2.79721c0,1.39859 -0.34509,2.71225 -0.69931,4.89508c-0.22403,1.38052 0.21503,2.228 -0.69928,3.49649c-0.57825,0.80228 -1.25665,1.57797 -2.0979,2.0979c-1.8811,1.1626 -2.69424,1.51962 -3.49649,2.09787c-1.26852,0.91431 -2.0979,1.39862 -2.79718,2.0979c-0.69931,0.69931 -2.01297,1.74368 -4.1958,2.0979c-1.38052,0.22403 -2.92728,0.48425 -4.1958,1.39859c-0.80228,0.57825 -1.40762,0.58731 -2.09787,0.69931c-2.18283,0.35422 -2.81592,1.23795 -3.49649,1.39859c-1.52185,0.35925 -2.11661,0.5386 -2.79721,0.69928c-1.52185,0.35925 -2.1069,1.28662 -2.79718,1.39862c-2.18283,0.35422 -2.79718,0.69928 -4.1958,1.39859c-1.39859,0.69928 -2.79718,0.69928 -3.49646,0.69928c-0.69931,0 -1.39862,0 -2.0979,0c-0.69931,0 -2.0979,0 -3.49649,0c-0.69931,0 -2.0979,0 -4.1958,0c-1.39859,0 -3.49649,0 -5.59436,0c-1.39862,0 -2.79721,0 -4.1958,0c-0.69931,0 -1.61539,0.46329 -3.49649,-0.69928c-0.84128,-0.51993 -2.13531,-0.37799 -3.49649,-0.69931c-1.52185,-0.35925 -2.0979,-0.69928 -2.79718,-0.69928c-1.39859,0 -2.0979,0 -3.49649,0c-0.69931,0 -2.0979,0 -2.79721,0c-1.39859,0 -2.09787,0 -3.49646,0c-1.39862,0 -2.79721,0 -3.49649,0c-0.69931,0 -1.61542,0.46329 -3.49649,-0.69931c-0.84128,-0.51993 -1.39862,-0.69931 -2.0979,-0.69931c-1.39859,0 -3.49649,-0.69928 -4.89508,-0.69928c-1.39859,0 -3.37323,-1.03934 -4.89508,-1.39859c-0.6806,-0.16068 -2.0979,0 -2.79721,0c-1.39859,0 -2.13528,0.32135 -3.49649,0c-1.52185,-0.35925 -2.09787,-0.69931 -2.79718,-0.69931c-1.39859,0 -2.3147,0.46329 -4.1958,-0.69931c-0.84125,-0.51993 -1.39859,-0.69928 -2.09787,-0.69928c-0.69931,0 -1.39862,0 -2.0979,0c-1.39859,0 -3.49649,0 -5.59439,0c-2.0979,0 -4.19577,0 -6.29367,0c-1.39859,0 -2.79718,0 -4.1958,0c-1.39859,0 -2.79718,0 -4.19577,0c-0.69931,0 -2.0979,0 -2.79721,0c-1.39859,0 -2.09787,0 -3.49646,0c-0.69931,0 -2.11597,-0.22403 -3.49649,0c-2.18283,0.35422 -3.49649,1.39859 -4.1958,1.39859c-1.39859,0 -3.49649,0.69931 -4.1958,0.69931c-1.39859,0 -2.09787,0 -2.79718,0c-0.69928,0 -1.39859,0 -2.0979,0c-0.69928,0 -2.11658,-0.16068 -2.79718,0c-1.52185,0.35925 -2.11597,1.17456 -3.49649,1.39859c-2.18283,0.35422 -3.51456,0.47525 -4.89508,0.69928c-2.18283,0.35422 -2.67395,1.73865 -4.1958,2.0979c-0.68057,0.16064 -2.92725,0.48431 -4.19577,1.39859c-0.80231,0.57825 -1.39859,0.69934 -2.79718,1.39862c-1.39862,0.69931 -2.01297,1.04437 -4.1958,1.39859c-0.69028,0.11203 -2.09787,0.69928 -2.79718,1.39859c-0.69931,0.69931 -2.69421,1.51965 -3.49649,2.0979c-1.26849,0.91431 -1.88354,1.71942 -2.79721,2.09787c-0.64606,0.26761 -2.39078,0.29291 -3.49649,1.39862c-1.10568,1.10568 -2.09787,2.09787 -2.79718,2.79718c-0.69931,0.69931 -1.39859,1.39859 -2.0979,2.0979c-0.69928,0.69928 -1.83029,1.45181 -2.0979,2.0979c-0.37845,0.91367 -1.13098,1.45181 -1.39859,2.09787c-0.37845,0.91367 -0.69928,1.39859 -0.69928,2.0979c0,0.69931 0,1.39859 0,2.0979c0,0.69928 0,1.39859 0,2.09787c0,0.69934 0,0.69934 0,1.39862c0,0.69928 0,1.39856 0,2.0979c0,0.69928 -0.26764,1.45178 0,2.0979c0.37845,0.91364 0.69928,1.39856 0.69928,2.0979c0,0.69928 1.02014,1.88348 1.39859,2.79718c0.26758,0.64606 0,1.39856 0,2.0979c0,0.69928 0.32083,1.18414 0.69931,2.09784c0.26764,0.64612 0.69928,2.0979 1.39859,2.79724c0.69928,0.69928 1.39856,1.39856 2.0979,2.0979c0.69931,0.69928 0.69931,0.69928 1.39859,1.39856c0.69931,0.69928 2.22797,1.18365 3.49649,2.0979c0.80228,0.57825 1.39859,1.39862 2.79721,2.0979c1.39859,0.69928 2.09787,2.0979 2.79718,2.79718c0.69928,0.69928 1.39859,1.39862 1.39859,2.0979c0,0.69928 -0.26761,1.45184 0,2.0979c0.37848,0.9137 1.51962,1.29559 2.0979,2.0979c0.91428,1.26849 1.39859,2.79718 2.0979,2.79718l0,0l0.69928,0l0.69931,0" id="svg_2" stroke="#000" fill="none"/>
 </g>
</svg>